<?xml version="1.0" encoding="UTF-8" standalone="no"?>
<!DOCTYPE svg PUBLIC "-//W3C//DTD SVG 1.1//EN"
 "http://www.w3.org/Graphics/SVG/1.1/DTD/svg11.dtd">
<!-- Generated by graphviz version 2.40.1 (20161225.0304)
 -->
<!-- Title: dependencies Pages: 1 -->
<svg width="696pt" height="211pt"
 viewBox="0.00 0.00 696.00 211.00" xmlns="http://www.w3.org/2000/svg" xmlns:xlink="http://www.w3.org/1999/xlink">
<g id="graph0" class="graph" transform="scale(1 1) rotate(0) translate(4 207)">
<title>dependencies</title>
<polygon fill="#ffffff" stroke="transparent" points="-4,4 -4,-207 692,-207 692,4 -4,4"/>
<text text-anchor="start" x="323.0091" y="-42.4" font-family="sans-serif" font-weight="bold" font-size="14.00" fill="#000000">Legend</text>
<polygon fill="#ffffb3" stroke="transparent" points="110,-10 110,-30 130,-30 130,-10 110,-10"/>
<text text-anchor="start" x="133.629" y="-15.4" font-family="sans-serif" font-size="14.00" fill="#000000"> &#160;Declarations</text>
<polygon fill="#8dd3c7" stroke="transparent" points="223,-10 223,-30 243,-30 243,-10 223,-10"/>
<text text-anchor="start" x="246.7251" y="-15.4" font-family="sans-serif" font-size="14.00" fill="#000000"> &#160;Module</text>
<polygon fill="#80b1d3" stroke="transparent" points="309,-10 309,-30 329,-30 329,-10 309,-10"/>
<text text-anchor="start" x="332.7812" y="-15.4" font-family="sans-serif" font-size="14.00" fill="#000000"> &#160;Bootstrap</text>
<polygon fill="#fdb462" stroke="transparent" points="406,-10 406,-30 426,-30 426,-10 406,-10"/>
<text text-anchor="start" x="429.6732" y="-15.4" font-family="sans-serif" font-size="14.00" fill="#000000"> &#160;Providers</text>
<polygon fill="#fb8072" stroke="transparent" points="502,-10 502,-30 522,-30 522,-10 502,-10"/>
<text text-anchor="start" x="525.7258" y="-15.4" font-family="sans-serif" font-size="14.00" fill="#000000"> &#160;Exports</text>
<g id="clust1" class="cluster">
<title>cluster_LoginModule</title>
<polygon fill="none" stroke="#000000" stroke-dasharray="1,5" points="8,-70 8,-195 680,-195 680,-70 8,-70"/>
</g>
<g id="clust2" class="cluster">
<title>cluster_LoginModule_declarations</title>
<polygon fill="none" stroke="#000000" points="178,-78 178,-130 672,-130 672,-78 178,-78"/>
</g>
<g id="clust6" class="cluster">
<title>cluster_LoginModule_imports</title>
<polygon fill="none" stroke="#000000" points="16,-78 16,-130 170,-130 170,-78 16,-78"/>
</g>
<!-- PageLoginComponent -->
<g id="node1" class="node">
<title>PageLoginComponent</title>
<polygon fill="#ffffb3" stroke="#000000" points="663.9874,-122 522.0126,-122 522.0126,-86 663.9874,-86 663.9874,-122"/>
<text text-anchor="middle" x="593" y="-99.8" font-family="Times,serif" font-size="14.00" fill="#000000">PageLoginComponent</text>
</g>
<!-- LoginModule -->
<g id="node4" class="node">
<title>LoginModule</title>
<polygon fill="#8dd3c7" stroke="#000000" points="391.493,-187 388.493,-191 367.493,-191 364.493,-187 298.507,-187 298.507,-151 391.493,-151 391.493,-187"/>
<text text-anchor="middle" x="345" y="-164.8" font-family="Times,serif" font-size="14.00" fill="#000000">LoginModule</text>
</g>
<!-- PageLoginComponent&#45;&gt;LoginModule -->
<g id="edge1" class="edge">
<title>PageLoginComponent&#45;&gt;LoginModule</title>
<path fill="none" stroke="#000000" d="M593,-122.1061C593,-141.3391 593,-169 593,-169 593,-169 401.6469,-169 401.6469,-169"/>
<polygon fill="#000000" stroke="#000000" points="401.6469,-165.5001 391.6469,-169 401.6469,-172.5001 401.6469,-165.5001"/>
</g>
<!-- PhoneLoginComponent -->
<g id="node2" class="node">
<title>PhoneLoginComponent</title>
<polygon fill="#ffffb3" stroke="#000000" points="503.773,-122 354.227,-122 354.227,-86 503.773,-86 503.773,-122"/>
<text text-anchor="middle" x="429" y="-99.8" font-family="Times,serif" font-size="14.00" fill="#000000">PhoneLoginComponent</text>
</g>
<!-- PhoneLoginComponent&#45;&gt;LoginModule -->
<g id="edge2" class="edge">
<title>PhoneLoginComponent&#45;&gt;LoginModule</title>
<path fill="none" stroke="#000000" d="M372.8051,-122.1061C372.8051,-122.1061 372.8051,-140.991 372.8051,-140.991"/>
<polygon fill="#000000" stroke="#000000" points="369.3051,-140.9909 372.8051,-150.991 376.3051,-140.991 369.3051,-140.9909"/>
</g>
<!-- SocialLoginComponent -->
<g id="node3" class="node">
<title>SocialLoginComponent</title>
<polygon fill="#ffffb3" stroke="#000000" points="335.7688,-122 186.2312,-122 186.2312,-86 335.7688,-86 335.7688,-122"/>
<text text-anchor="middle" x="261" y="-99.8" font-family="Times,serif" font-size="14.00" fill="#000000">SocialLoginComponent</text>
</g>
<!-- SocialLoginComponent&#45;&gt;LoginModule -->
<g id="edge3" class="edge">
<title>SocialLoginComponent&#45;&gt;LoginModule</title>
<path fill="none" stroke="#000000" d="M317.1939,-122.1061C317.1939,-122.1061 317.1939,-140.991 317.1939,-140.991"/>
<polygon fill="#000000" stroke="#000000" points="313.694,-140.9909 317.1939,-150.991 320.694,-140.991 313.694,-140.9909"/>
</g>
<!-- LoginRoutingModule -->
<g id="node5" class="node">
<title>LoginRoutingModule</title>
<polygon fill="#8dd3c7" stroke="#000000" points="162.1108,-122 159.1108,-126 138.1108,-126 135.1108,-122 23.8892,-122 23.8892,-86 162.1108,-86 162.1108,-122"/>
<text text-anchor="middle" x="93" y="-99.8" font-family="Times,serif" font-size="14.00" fill="#000000">LoginRoutingModule</text>
</g>
<!-- LoginRoutingModule&#45;&gt;LoginModule -->
<g id="edge4" class="edge">
<title>LoginRoutingModule&#45;&gt;LoginModule</title>
<path fill="none" stroke="#000000" d="M93,-122.1061C93,-141.3391 93,-169 93,-169 93,-169 288.4856,-169 288.4856,-169"/>
<polygon fill="#000000" stroke="#000000" points="288.4857,-172.5001 298.4856,-169 288.4856,-165.5001 288.4857,-172.5001"/>
</g>
</g>
</svg>
