<?xml version="1.0" encoding="UTF-8" standalone="no"?>
<!DOCTYPE svg PUBLIC "-//W3C//DTD SVG 1.1//EN"
 "http://www.w3.org/Graphics/SVG/1.1/DTD/svg11.dtd">
<!-- Generated by graphviz version 2.40.1 (20161225.0304)
 -->
<!-- Title: dependencies Pages: 1 -->
<svg width="575pt" height="284pt"
 viewBox="0.00 0.00 575.00 284.00" xmlns="http://www.w3.org/2000/svg" xmlns:xlink="http://www.w3.org/1999/xlink">
<g id="graph0" class="graph" transform="scale(1 1) rotate(0) translate(4 280)">
<title>dependencies</title>
<polygon fill="#ffffff" stroke="transparent" points="-4,4 -4,-280 571,-280 571,4 -4,4"/>
<text text-anchor="start" x="262.5091" y="-42.4" font-family="sans-serif" font-weight="bold" font-size="14.00" fill="#000000">Legend</text>
<polygon fill="#ffffb3" stroke="transparent" points="49.5,-10 49.5,-30 69.5,-30 69.5,-10 49.5,-10"/>
<text text-anchor="start" x="73.129" y="-15.4" font-family="sans-serif" font-size="14.00" fill="#000000"> &#160;Declarations</text>
<polygon fill="#8dd3c7" stroke="transparent" points="162.5,-10 162.5,-30 182.5,-30 182.5,-10 162.5,-10"/>
<text text-anchor="start" x="186.2251" y="-15.4" font-family="sans-serif" font-size="14.00" fill="#000000"> &#160;Module</text>
<polygon fill="#80b1d3" stroke="transparent" points="248.5,-10 248.5,-30 268.5,-30 268.5,-10 248.5,-10"/>
<text text-anchor="start" x="272.2812" y="-15.4" font-family="sans-serif" font-size="14.00" fill="#000000"> &#160;Bootstrap</text>
<polygon fill="#fdb462" stroke="transparent" points="345.5,-10 345.5,-30 365.5,-30 365.5,-10 345.5,-10"/>
<text text-anchor="start" x="369.1732" y="-15.4" font-family="sans-serif" font-size="14.00" fill="#000000"> &#160;Providers</text>
<polygon fill="#fb8072" stroke="transparent" points="441.5,-10 441.5,-30 461.5,-30 461.5,-10 441.5,-10"/>
<text text-anchor="start" x="465.2258" y="-15.4" font-family="sans-serif" font-size="14.00" fill="#000000"> &#160;Exports</text>
<g id="clust1" class="cluster">
<title>cluster_SharedModule</title>
<polygon fill="none" stroke="#000000" stroke-dasharray="1,5" points="8,-70 8,-268 559,-268 559,-70 8,-70"/>
</g>
<g id="clust2" class="cluster">
<title>cluster_SharedModule_declarations</title>
<polygon fill="none" stroke="#000000" points="25,-78 25,-130 545,-130 545,-78 25,-78"/>
</g>
<g id="clust8" class="cluster">
<title>cluster_SharedModule_exports</title>
<polygon fill="none" stroke="#000000" points="16,-208 16,-260 551,-260 551,-208 16,-208"/>
</g>
<!-- ButtonRouterComponent -->
<g id="node1" class="node">
<title>ButtonRouterComponent</title>
<polygon fill="#ffffb3" stroke="#000000" points="536.5532,-122 379.4468,-122 379.4468,-86 536.5532,-86 536.5532,-122"/>
<text text-anchor="middle" x="458" y="-99.8" font-family="Times,serif" font-size="14.00" fill="#000000">ButtonRouterComponent</text>
</g>
<!-- SharedModule -->
<g id="node5" class="node">
<title>SharedModule</title>
<polygon fill="#8dd3c7" stroke="#000000" points="236.4231,-187 233.4231,-191 212.4231,-191 209.4231,-187 137.5769,-187 137.5769,-151 236.4231,-151 236.4231,-187"/>
<text text-anchor="middle" x="187" y="-164.8" font-family="Times,serif" font-size="14.00" fill="#000000">SharedModule</text>
</g>
<!-- ButtonRouterComponent&#45;&gt;SharedModule -->
<g id="edge1" class="edge">
<title>ButtonRouterComponent&#45;&gt;SharedModule</title>
<path fill="none" stroke="#000000" d="M485.0088,-122.2667C485.0088,-140.5552 485.0088,-166 485.0088,-166 485.0088,-166 246.5446,-166 246.5446,-166"/>
<polygon fill="#000000" stroke="#000000" points="246.5447,-162.5001 236.5446,-166 246.5446,-169.5001 246.5447,-162.5001"/>
</g>
<!-- StateDirective -->
<g id="node2" class="node">
<title>StateDirective</title>
<polygon fill="#ffffb3" stroke="#000000" points="361.0758,-122 264.9242,-122 264.9242,-86 361.0758,-86 361.0758,-122"/>
<text text-anchor="middle" x="313" y="-99.8" font-family="Times,serif" font-size="14.00" fill="#000000">StateDirective</text>
</g>
<!-- StateDirective&#45;&gt;SharedModule -->
<g id="edge2" class="edge">
<title>StateDirective&#45;&gt;SharedModule</title>
<path fill="none" stroke="#000000" d="M329.0126,-122.0091C329.0126,-138.0494 329.0126,-159 329.0126,-159 329.0126,-159 246.2706,-159 246.2706,-159"/>
<polygon fill="#000000" stroke="#000000" points="246.2706,-155.5001 236.2706,-159 246.2705,-162.5001 246.2706,-155.5001"/>
</g>
<!-- TableauComponent -->
<g id="node3" class="node">
<title>TableauComponent</title>
<polygon fill="#ffffb3" stroke="#000000" points="247.4201,-122 120.5799,-122 120.5799,-86 247.4201,-86 247.4201,-122"/>
<text text-anchor="middle" x="184" y="-99.8" font-family="Times,serif" font-size="14.00" fill="#000000">TableauComponent</text>
</g>
<!-- TableauComponent&#45;&gt;SharedModule -->
<g id="edge3" class="edge">
<title>TableauComponent&#45;&gt;SharedModule</title>
<path fill="none" stroke="#000000" d="M187,-122.1061C187,-122.1061 187,-140.991 187,-140.991"/>
<polygon fill="#000000" stroke="#000000" points="183.5001,-140.9909 187,-150.991 190.5001,-140.991 183.5001,-140.9909"/>
</g>
<!-- TotalPipe -->
<g id="node4" class="node">
<title>TotalPipe</title>
<polygon fill="#ffffb3" stroke="#000000" points="103.4376,-122 32.5624,-122 32.5624,-86 103.4376,-86 103.4376,-122"/>
<text text-anchor="middle" x="68" y="-99.8" font-family="Times,serif" font-size="14.00" fill="#000000">TotalPipe</text>
</g>
<!-- TotalPipe&#45;&gt;SharedModule -->
<g id="edge4" class="edge">
<title>TotalPipe&#45;&gt;SharedModule</title>
<path fill="none" stroke="#000000" d="M76.2394,-122.0225C76.2394,-139.3734 76.2394,-163 76.2394,-163 76.2394,-163 127.7737,-163 127.7737,-163"/>
<polygon fill="#000000" stroke="#000000" points="127.7738,-166.5001 137.7737,-163 127.7737,-159.5001 127.7738,-166.5001"/>
</g>
<!-- ButtonRouterComponent  -->
<g id="node6" class="node">
<title>ButtonRouterComponent </title>
<polygon fill="#fb8072" stroke="#000000" points="542.5526,-252 381.4474,-252 381.4474,-216 542.5526,-216 542.5526,-252"/>
<text text-anchor="middle" x="462" y="-229.8" font-family="Times,serif" font-size="14.00" fill="#000000">ButtonRouterComponent </text>
</g>
<!-- SharedModule&#45;&gt;ButtonRouterComponent  -->
<g id="edge5" class="edge">
<title>SharedModule&#45;&gt;ButtonRouterComponent </title>
<path fill="none" stroke="#000000" stroke-dasharray="5,2" d="M236.2388,-173C308.0982,-173 433.2412,-173 433.2412,-173 433.2412,-173 433.2412,-205.698 433.2412,-205.698"/>
<polygon fill="#000000" stroke="#000000" points="429.7413,-205.698 433.2412,-215.698 436.7413,-205.698 429.7413,-205.698"/>
</g>
<!-- StateDirective  -->
<g id="node7" class="node">
<title>StateDirective </title>
<polygon fill="#fb8072" stroke="#000000" points="363.5767,-252 264.4233,-252 264.4233,-216 363.5767,-216 363.5767,-252"/>
<text text-anchor="middle" x="314" y="-229.8" font-family="Times,serif" font-size="14.00" fill="#000000">StateDirective </text>
</g>
<!-- SharedModule&#45;&gt;StateDirective  -->
<g id="edge6" class="edge">
<title>SharedModule&#45;&gt;StateDirective </title>
<path fill="none" stroke="#000000" stroke-dasharray="5,2" d="M236.5238,-180C265.7173,-180 296.9874,-180 296.9874,-180 296.9874,-180 296.9874,-205.7181 296.9874,-205.7181"/>
<polygon fill="#000000" stroke="#000000" points="293.4875,-205.718 296.9874,-215.7181 300.4875,-205.7181 293.4875,-205.718"/>
</g>
<!-- TableauComponent  -->
<g id="node8" class="node">
<title>TableauComponent </title>
<polygon fill="#fb8072" stroke="#000000" points="245.9194,-252 116.0806,-252 116.0806,-216 245.9194,-216 245.9194,-252"/>
<text text-anchor="middle" x="181" y="-229.8" font-family="Times,serif" font-size="14.00" fill="#000000">TableauComponent </text>
</g>
<!-- SharedModule&#45;&gt;TableauComponent  -->
<g id="edge7" class="edge">
<title>SharedModule&#45;&gt;TableauComponent </title>
<path fill="none" stroke="#000000" stroke-dasharray="5,2" d="M187,-187.1061C187,-187.1061 187,-205.991 187,-205.991"/>
<polygon fill="#000000" stroke="#000000" points="183.5001,-205.9909 187,-215.991 190.5001,-205.991 183.5001,-205.9909"/>
</g>
<!-- TotalPipe  -->
<g id="node9" class="node">
<title>TotalPipe </title>
<polygon fill="#fb8072" stroke="#000000" points="97.9362,-252 24.0638,-252 24.0638,-216 97.9362,-216 97.9362,-252"/>
<text text-anchor="middle" x="61" y="-229.8" font-family="Times,serif" font-size="14.00" fill="#000000">TotalPipe </text>
</g>
<!-- SharedModule&#45;&gt;TotalPipe  -->
<g id="edge8" class="edge">
<title>SharedModule&#45;&gt;TotalPipe </title>
<path fill="none" stroke="#000000" stroke-dasharray="5,2" d="M137.6658,-175C99.9972,-175 54.5106,-175 54.5106,-175 54.5106,-175 54.5106,-205.9775 54.5106,-205.9775"/>
<polygon fill="#000000" stroke="#000000" points="51.0107,-205.9774 54.5106,-215.9775 58.0107,-205.9775 51.0107,-205.9774"/>
</g>
</g>
</svg>
